<?xml version="1.0" encoding="utf-8"?>
<!-- Generator: Adobe Illustrator 27.9.0, SVG Export Plug-In . SVG Version: 6.00 Build 0)  -->
<svg version="1.1" id="레이어_1" xmlns="http://www.w3.org/2000/svg" xmlns:xlink="http://www.w3.org/1999/xlink" x="0px"
	 y="0px" viewBox="0 0 162 100" style="enable-background:new 0 0 162 100;" xml:space="preserve">
<style type="text/css">
	.st0{fill:#A88BF7;}
</style>
<path class="st0" d="M158.5,50.1c0,2-0.8,4-2.3,5.5l-38.7,38.7c-3,3-8,3-11,0c-1.5-1.5-2.3-3.5-2.3-5.5s0.8-4,2.3-5.5L131.8,58H8
	c-4.4,0-8-3.6-8-8c0-2.2,0.9-4.2,2.3-5.7C3.8,42.9,5.8,42,8,42h124l-25.4-25.4c-3-3-3-8,0-11c1.5-1.5,3.5-2.3,5.5-2.3
	c2,0,4,0.8,5.5,2.3l38.7,38.6c1.6,1.6,2.3,3.7,2.3,5.7C158.5,50,158.5,50,158.5,50.1z"/>
</svg>
