<svg width="24" height="24" viewBox="0 0 24 24" fill="none" xmlns="http://www.w3.org/2000/svg">
<mask id="mask0_33_1032" style="mask-type:alpha" maskUnits="userSpaceOnUse" x="0" y="0" width="24" height="24">
<rect width="24" height="24" fill="#D9D9D9"/>
</mask>
<g mask="url(#mask0_33_1032)">
<path d="M9.10697 12.0038L16.6996 19.342C16.8999 19.5356 16.9974 19.7636 16.9922 20.0258C16.9871 20.2881 16.8843 20.516 16.684 20.7096C16.4838 20.9032 16.2479 21 15.9766 21C15.7052 21 15.4694 20.9032 15.2691 20.7096L7.53694 13.2515C7.3547 13.0754 7.21965 12.8781 7.13179 12.6595C7.04393 12.441 7 12.2224 7 12.0038C7 11.7853 7.04393 11.5667 7.13179 11.3481C7.21967 11.1296 7.35471 10.9323 7.53694 10.7562L15.2691 3.28309C15.4694 3.0895 15.7078 2.9952 15.9843 3.00019C16.2608 3.00519 16.4993 3.10448 16.6996 3.29807C16.8999 3.49165 17 3.71958 17 3.98184C17 4.24413 16.8999 4.47206 16.6996 4.66565L9.10697 12.0038Z" fill="black"/>
</g>
</svg>
