<svg width="24" height="24" viewBox="0 0 24 24" fill="none" xmlns="http://www.w3.org/2000/svg">
<mask id="mask0_33_996" style="mask-type:alpha" maskUnits="userSpaceOnUse" x="0" y="0" width="24" height="24">
<rect width="24" height="24" fill="#D9D9D9"/>
</mask>
<g mask="url(#mask0_33_996)">
<path d="M14.3132 12.503L8.2345 6.39295C8.07414 6.23177 7.99603 6.0399 8.00016 5.81737C8.0043 5.59482 8.08655 5.40296 8.24691 5.24178C8.40727 5.08059 8.59814 5 8.81953 5C9.04093 5 9.2318 5.08059 9.39216 5.24178L15.5701 11.4642C15.716 11.6108 15.8241 11.7751 15.8945 11.9571C15.9648 12.1391 16 12.3211 16 12.503C16 12.685 15.9648 12.867 15.8945 13.049C15.8241 13.231 15.716 13.3953 15.5701 13.5419L9.37975 19.7643C9.21939 19.9255 9.03058 20.004 8.81332 19.9998C8.59607 19.9957 8.40727 19.913 8.24691 19.7518C8.08655 19.5906 8.00637 19.3988 8.00637 19.1762C8.00637 18.9537 8.08655 18.7618 8.24691 18.6006L14.3132 12.503Z" fill="black"/>
</g>
</svg>
