<svg width="24" height="24" viewBox="0 0 24 24" fill="none" xmlns="http://www.w3.org/2000/svg">
<mask id="mask0_298_739" style="mask-type:alpha" maskUnits="userSpaceOnUse" x="0" y="0" width="24" height="24">
<rect width="24" height="24" fill="#D9D9D9"/>
</mask>
<g mask="url(#mask0_298_739)">
<path d="M11.7471 6.43178H9.49771C9.28527 6.43178 9.10721 6.36097 8.96352 6.21935C8.81981 6.07771 8.74796 5.90221 8.74796 5.69285C8.74796 5.48347 8.81981 5.30808 8.96352 5.16667C9.10721 5.02526 9.28527 4.95456 9.49771 4.95456H11.7471V2.73861C11.7471 2.52933 11.8189 2.35391 11.9627 2.21233C12.1065 2.07078 12.2846 2 12.4971 2C12.7097 2 12.8877 2.07078 13.0312 2.21233C13.1748 2.35391 13.2466 2.52933 13.2466 2.73861V4.95456H15.4959C15.7083 4.95456 15.8864 5.02537 16.0301 5.16699C16.1738 5.30863 16.2456 5.48413 16.2456 5.69349C16.2456 5.90287 16.1738 6.07826 16.0301 6.21967C15.8864 6.36108 15.7083 6.43178 15.4959 6.43178H13.2466V8.64772C13.2466 8.85701 13.1747 9.03243 13.0309 9.17401C12.8871 9.31556 12.709 9.38634 12.4965 9.38634C12.2839 9.38634 12.1059 9.31556 11.9624 9.17401C11.8188 9.03243 11.7471 8.85701 11.7471 8.64772V6.43178ZM7.65212 22C7.16638 22 6.75337 21.8324 6.41309 21.4972C6.07281 21.162 5.90267 20.7551 5.90267 20.2765C5.90267 19.798 6.07281 19.3911 6.41309 19.0559C6.75337 18.7207 7.16638 18.5531 7.65212 18.5531C8.13787 18.5531 8.55089 18.7207 8.89117 19.0559C9.23145 19.3911 9.40159 19.798 9.40159 20.2765C9.40159 20.7551 9.23145 21.162 8.89117 21.4972C8.55089 21.8324 8.13787 22 7.65212 22ZM17.3415 22C16.8557 22 16.4427 21.8324 16.1024 21.4972C15.7622 21.162 15.592 20.7551 15.592 20.2765C15.592 19.798 15.7622 19.3911 16.1024 19.0559C16.4427 18.7207 16.8557 18.5531 17.3415 18.5531C17.8272 18.5531 18.2402 18.7207 18.5805 19.0559C18.9208 19.3911 19.0909 19.798 19.0909 20.2765C19.0909 20.7551 18.9208 21.162 18.5805 21.4972C18.2402 21.8324 17.8272 22 17.3415 22ZM3.90327 4.46211H2.74977C2.53734 4.46211 2.35927 4.39129 2.21556 4.24967C2.07185 4.10803 2 3.93253 2 3.72317C2 3.51379 2.07185 3.3384 2.21556 3.19699C2.35927 3.05558 2.53734 2.98488 2.74977 2.98488H4.29216C4.46352 2.98488 4.62354 3.02918 4.77221 3.11778C4.92088 3.20639 5.03239 3.33191 5.10674 3.49434L9.03248 11.6591H15.8477C15.9054 11.6591 15.9567 11.6449 16.0015 11.6165C16.0464 11.5881 16.0848 11.5486 16.1169 11.4981L19.6062 5.32385C19.6703 5.20391 19.7584 5.11238 19.8707 5.04925C19.9829 4.98612 20.1076 4.95456 20.2448 4.95456C20.5317 4.95456 20.7469 5.07513 20.8904 5.31629C21.0339 5.55745 21.0365 5.80113 20.8981 6.04732L17.4299 12.2348C17.2658 12.5189 17.0488 12.7402 16.7787 12.8987C16.5087 13.0571 16.2131 13.1363 15.8919 13.1363H8.59798L7.44063 15.2197C7.38936 15.2955 7.38776 15.3775 7.43583 15.4659C7.4839 15.5543 7.556 15.5985 7.65212 15.5985H18.3412C18.5536 15.5985 18.7317 15.6693 18.8754 15.811C19.0191 15.9526 19.0909 16.1281 19.0909 16.3375C19.0909 16.5468 19.0191 16.7222 18.8754 16.8636C18.7317 17.005 18.5536 17.0757 18.3412 17.0757H7.65212C6.98567 17.0757 6.4823 16.7951 6.14202 16.2339C5.80174 15.6727 5.79245 15.1048 6.11413 14.5303L7.54065 12.0038L3.90327 4.46211Z" fill="#1C1B1F"/>
</g>
</svg>
