<svg width="24" height="24" viewBox="0 0 24 24" fill="none" xmlns="http://www.w3.org/2000/svg">
<g id="dehaze">
<mask id="mask0_33_1006" style="mask-type:alpha" maskUnits="userSpaceOnUse" x="0" y="0" width="24" height="24">
<rect id="Bounding box" width="24" height="24" fill="#D9D9D9"/>
</mask>
<g mask="url(#mask0_33_1006)">
<path id="dehaze_2" d="M4.45301 6.99998C4.23529 6.99998 4.05278 6.92807 3.9055 6.78425C3.75821 6.64045 3.68457 6.46225 3.68457 6.24965C3.68457 6.03707 3.75821 5.85898 3.9055 5.7154C4.05278 5.5718 4.23529 5.5 4.45301 5.5H20.3341C20.5518 5.5 20.7343 5.57191 20.8816 5.71573C21.0289 5.85954 21.1026 6.03774 21.1026 6.25033C21.1026 6.46293 21.0289 6.64102 20.8816 6.7846C20.7343 6.92818 20.5518 6.99998 20.3341 6.99998H4.45301ZM4.45301 18.5C4.23529 18.5 4.05278 18.428 3.9055 18.2842C3.75821 18.1404 3.68457 17.9622 3.68457 17.7496C3.68457 17.537 3.75821 17.3589 3.9055 17.2154C4.05278 17.0718 4.23529 17 4.45301 17H20.3341C20.5518 17 20.7343 17.0719 20.8816 17.2157C21.0289 17.3595 21.1026 17.5377 21.1026 17.7503C21.1026 17.9629 21.0289 18.141 20.8816 18.2846C20.7343 18.4282 20.5518 18.5 20.3341 18.5H4.45301ZM4.45301 12.75C4.23529 12.75 4.05278 12.6781 3.9055 12.5343C3.75821 12.3904 3.68457 12.2122 3.68457 11.9997C3.68457 11.7871 3.75821 11.609 3.9055 11.4654C4.05278 11.3218 4.23529 11.25 4.45301 11.25H20.3341C20.5518 11.25 20.7343 11.3219 20.8816 11.4657C21.0289 11.6095 21.1026 11.7877 21.1026 12.0003C21.1026 12.2129 21.0289 12.391 20.8816 12.5346C20.7343 12.6782 20.5518 12.75 20.3341 12.75H4.45301Z" fill="white"/>
</g>
</g>
</svg>
