<svg width="24" height="24" viewBox="0 0 24 24" fill="none" xmlns="http://www.w3.org/2000/svg">
<mask id="mask0_228_640" style="mask-type:alpha" maskUnits="userSpaceOnUse" x="0" y="0" width="24" height="24">
<rect width="24" height="24" fill="#D9D9D9"/>
</mask>
<g mask="url(#mask0_228_640)">
<path d="M12 10.4382L7.92689 14.5113C7.78844 14.6498 7.6144 14.7206 7.40479 14.7238C7.19519 14.727 7.01795 14.6562 6.87309 14.5113C6.7282 14.3665 6.65576 14.1908 6.65576 13.9844C6.65576 13.778 6.7282 13.6024 6.87309 13.4575L11.3673 8.96327C11.4609 8.86969 11.5596 8.80366 11.6635 8.76519C11.7673 8.72674 11.8795 8.70752 12 8.70752C12.1205 8.70752 12.2327 8.72674 12.3365 8.76519C12.4404 8.80366 12.5391 8.86969 12.6327 8.96327L17.1269 13.4575C17.2654 13.596 17.3362 13.77 17.3394 13.9796C17.3426 14.1892 17.2718 14.3665 17.1269 14.5113C16.982 14.6562 16.8064 14.7286 16.6 14.7286C16.3936 14.7286 16.218 14.6562 16.0731 14.5113L12 10.4382Z" fill="white"/>
</g>
</svg>
