<svg width="24" height="24" viewBox="0 0 24 24" fill="none" xmlns="http://www.w3.org/2000/svg">
<mask id="mask0_292_513" style="mask-type:alpha" maskUnits="userSpaceOnUse" x="0" y="0" width="24" height="24">
<rect width="24" height="24" fill="#D9D9D9"/>
</mask>
<g mask="url(#mask0_292_513)">
<path d="M12.4904 21C12.2763 21 12.0612 20.9605 11.8452 20.8815C11.6292 20.8026 11.4391 20.6789 11.275 20.5104L9.83849 19.1699C8.06541 17.5102 6.48238 15.8799 5.08943 14.2788C3.69648 12.6777 3 10.9624 3 9.13296C3 7.676 3.47853 6.45626 4.43558 5.47376C5.39263 4.49125 6.58077 4 7.99999 4C8.80639 4 9.60287 4.19085 10.3894 4.57253C11.176 4.95422 11.8795 5.57413 12.5 6.43227C13.1205 5.57413 13.824 4.95422 14.6106 4.57253C15.3971 4.19085 16.1936 4 17 4C18.4192 4 19.6074 4.49125 20.5644 5.47376C21.5215 6.45626 22 7.676 22 9.13296C22 10.9821 21.2917 12.7165 19.875 14.336C18.4583 15.9555 16.8788 17.5721 15.1365 19.1857L13.7154 20.5104C13.5513 20.6789 13.3596 20.8026 13.1404 20.8815C12.9211 20.9605 12.7045 21 12.4904 21Z" fill="#8B63F7"/>
</g>
</svg>
