<svg width="15" height="15" viewBox="0 0 15 15" fill="none" xmlns="http://www.w3.org/2000/svg">
<mask id="mask0_186_247" style="mask-type:alpha" maskUnits="userSpaceOnUse" x="0" y="0" width="15" height="15">
<rect width="15" height="15" fill="#D9D9D9"/>
</mask>
<g mask="url(#mask0_186_247)">
<path d="M7.86854 13.5C7.72487 13.5 7.58055 13.4739 7.43559 13.4216C7.29062 13.3693 7.16308 13.2875 7.05296 13.176L6.08899 12.2889C4.89915 11.1906 3.83686 10.1117 2.90212 9.05212C1.96737 7.99257 1.5 6.85747 1.5 5.64681C1.5 4.68265 1.82112 3.87547 2.46335 3.22528C3.10558 2.57509 3.90288 2.25 4.85525 2.25C5.39639 2.25 5.93087 2.37629 6.45869 2.62888C6.9865 2.88147 7.4586 3.29171 7.875 3.85959C8.2914 3.29171 8.7635 2.88147 9.29131 2.62888C9.81913 2.37629 10.3536 2.25 10.8947 2.25C11.8471 2.25 12.6444 2.57509 13.2867 3.22528C13.9289 3.87547 14.25 4.68265 14.25 5.64681C14.25 6.87053 13.7747 8.01827 12.824 9.09001C11.8733 10.1618 10.8134 11.2315 9.64423 12.2994L8.69058 13.176C8.58046 13.2875 8.45184 13.3693 8.30473 13.4216C8.15761 13.4739 8.01221 13.5 7.86854 13.5ZM7.39236 4.89168C7.02931 4.33164 6.64711 3.92118 6.24576 3.66033C5.84442 3.39947 5.38091 3.26903 4.85525 3.26903C4.1842 3.26903 3.62499 3.49549 3.17762 3.9484C2.73025 4.40131 2.50656 4.96745 2.50656 5.64681C2.50656 6.19205 2.68013 6.76211 3.02727 7.35698C3.37441 7.95186 3.81015 8.54325 4.33452 9.13115C4.85889 9.71906 5.42692 10.2935 6.03861 10.8544C6.6503 11.4153 7.21725 11.9366 7.73948 12.4183C7.7782 12.4531 7.82337 12.4705 7.875 12.4705C7.92663 12.4705 7.9718 12.4531 8.01052 12.4183C8.53275 11.9366 9.0997 11.4153 9.71139 10.8544C10.3231 10.2935 10.8911 9.71906 11.4155 9.13115C11.9398 8.54325 12.3756 7.95186 12.7227 7.35698C13.0699 6.76211 13.2434 6.19205 13.2434 5.64681C13.2434 4.96745 13.0198 4.40131 12.5724 3.9484C12.125 3.49549 11.5658 3.26903 10.8947 3.26903C10.3691 3.26903 9.90558 3.39947 9.50424 3.66033C9.10289 3.92118 8.72069 4.33164 8.35764 4.89168C8.30086 4.97878 8.22945 5.0441 8.14342 5.08766C8.05738 5.13121 7.96791 5.15298 7.875 5.15298C7.78209 5.15298 7.69262 5.13121 7.60658 5.08766C7.52055 5.0441 7.44914 4.97878 7.39236 4.89168Z" fill="#333333"/>
</g>
</svg>
