<svg width="24" height="25" viewBox="0 0 24 25" fill="none" xmlns="http://www.w3.org/2000/svg">
<mask id="mask0_106_329" style="mask-type:alpha" maskUnits="userSpaceOnUse" x="0" y="0" width="24" height="25">
<rect y="0.5" width="24" height="24" fill="#D9D9D9"/>
</mask>
<g mask="url(#mask0_106_329)">
<path d="M11.542 19.7021C11.2999 19.7021 11.0974 19.6175 10.9344 19.4483C10.7714 19.2791 10.6898 19.0688 10.6898 18.8175V13.0291L5.29726 5.91753C5.11202 5.66111 5.08516 5.39444 5.21668 5.11753C5.3482 4.84061 5.57018 4.70215 5.88263 4.70215H18.3869C18.6993 4.70215 18.9213 4.84061 19.0529 5.11753C19.1844 5.39444 19.1575 5.66111 18.9723 5.91753L13.5797 13.0291V18.8175C13.5797 19.0688 13.4982 19.2791 13.3352 19.4483C13.1721 19.6175 12.9696 19.7021 12.7275 19.7021H11.542ZM12.1348 12.5021L16.9031 6.20213H7.36644L12.1348 12.5021Z" fill="black"/>
</g>
</svg>
