<svg width="20" height="20" viewBox="0 0 20 20" fill="none" xmlns="http://www.w3.org/2000/svg">
<mask id="mask0_359_798" style="mask-type:alpha" maskUnits="userSpaceOnUse" x="0" y="0" width="20" height="20">
<rect width="20" height="20" fill="#D9D9D9"/>
</mask>
<g mask="url(#mask0_359_798)">
<path d="M6.03212 13.6155C5.03187 13.6155 4.17925 13.2626 3.47425 12.5567C2.76925 11.8509 2.41675 10.9973 2.41675 9.99587C2.41675 8.99444 2.76925 8.14223 3.47425 7.43924C4.17925 6.73626 5.03187 6.38477 6.03212 6.38477H8.29814C8.45162 6.38477 8.58026 6.43628 8.68406 6.53931C8.78788 6.64233 8.83979 6.77 8.83979 6.92231C8.83979 7.07461 8.78788 7.20365 8.68406 7.30941C8.58026 7.41518 8.45162 7.46806 8.29814 7.46806H6.03116C5.33201 7.46806 4.73537 7.71512 4.24125 8.20925C3.74712 8.70337 3.50006 9.30033 3.50006 10.0001C3.50006 10.6999 3.74712 11.2969 4.24125 11.791C4.73537 12.2851 5.33201 12.5322 6.03116 12.5322H8.29814C8.45162 12.5322 8.58026 12.5837 8.68406 12.6867C8.78788 12.7898 8.83979 12.9174 8.83979 13.0697C8.83979 13.222 8.78788 13.3511 8.68406 13.4568C8.58026 13.5626 8.45162 13.6155 8.29814 13.6155H6.03212ZM7.75596 10.5418C7.60272 10.5418 7.47316 10.4903 7.36727 10.3872C7.26137 10.2842 7.20842 10.1565 7.20842 10.0042C7.20842 9.85192 7.26024 9.72288 7.36389 9.61712C7.46755 9.51136 7.59599 9.45847 7.74923 9.45847H12.2442C12.3974 9.45847 12.527 9.50999 12.6329 9.61302C12.7388 9.71604 12.7917 9.84371 12.7917 9.99602C12.7917 10.1483 12.7399 10.2774 12.6362 10.3831C12.5326 10.4889 12.4041 10.5418 12.2509 10.5418H7.75596ZM11.702 13.6155C11.5485 13.6155 11.4199 13.564 11.3161 13.4609C11.2122 13.3579 11.1603 13.2302 11.1603 13.0779C11.1603 12.9256 11.2122 12.7966 11.3161 12.6908C11.4199 12.5851 11.5485 12.5322 11.702 12.5322H13.969C14.6681 12.5322 15.2647 12.2851 15.7589 11.791C16.253 11.2969 16.5001 10.6999 16.5001 10.0001C16.5001 9.30033 16.253 8.70337 15.7589 8.20925C15.2647 7.71512 14.6681 7.46806 13.969 7.46806H11.702C11.5485 7.46806 11.4199 7.41654 11.3161 7.31352C11.2122 7.21049 11.1603 7.08282 11.1603 6.93052C11.1603 6.77821 11.2122 6.64918 11.3161 6.54341C11.4199 6.43765 11.5485 6.38477 11.702 6.38477H13.968C14.9682 6.38477 15.8209 6.73767 16.5259 7.44349C17.2309 8.14933 17.5834 9.00295 17.5834 10.0044C17.5834 11.0058 17.2309 11.858 16.5259 12.561C15.8209 13.264 14.9682 13.6155 13.968 13.6155H11.702Z" fill="#8B63F7"/>
</g>
</svg>
