<svg width="16" height="12" viewBox="0 0 16 12" fill="none" xmlns="http://www.w3.org/2000/svg">
<path d="M1.7565 11.5831C1.39111 11.5831 1.07647 11.4512 0.812582 11.1873C0.548693 10.9234 0.416748 10.6088 0.416748 10.2434V1.75625C0.416748 1.39087 0.548693 1.07623 0.812582 0.812337C1.07647 0.548448 1.39111 0.416504 1.7565 0.416504H14.2436C14.6187 0.416504 14.9358 0.548448 15.1948 0.812337C15.4539 1.07623 15.5834 1.39087 15.5834 1.75625V10.2434C15.5834 10.6088 15.4539 10.9234 15.1948 11.1873C14.9358 11.4512 14.6187 11.5831 14.2436 11.5831H1.7565ZM14.5001 2.80588L8.36383 6.41807C8.30635 6.45439 8.24705 6.48296 8.18596 6.5038C8.12486 6.52463 8.06289 6.53505 8.00006 6.53505C7.93062 6.53505 7.87212 6.52463 7.82458 6.5038C7.77704 6.48296 7.72179 6.45647 7.65883 6.42432L1.50006 2.80588V10.2434C1.50006 10.3182 1.5241 10.3796 1.57219 10.4277C1.62027 10.4758 1.68171 10.4998 1.7565 10.4998H14.2436C14.3184 10.4998 14.3799 10.4758 14.4279 10.4277C14.476 10.3796 14.5001 10.3182 14.5001 10.2434V2.80588ZM8.00006 5.22898L14.351 1.49982H1.66994L8.00006 5.22898ZM1.50006 2.53703V2.70844V1.88923V1.90365V1.87721V2.71021V2.53884V10.4998V2.53703Z" fill="#8B63F7"/>
</svg>
