<svg width="15" height="15" viewBox="0 0 15 15" fill="none" xmlns="http://www.w3.org/2000/svg">
<mask id="mask0_186_251" style="mask-type:alpha" maskUnits="userSpaceOnUse" x="0" y="0" width="15" height="15">
<rect width="15" height="15" fill="#D9D9D9"/>
</mask>
<g mask="url(#mask0_186_251)">
<path d="M11.6151 14.25C11.0915 14.25 10.6462 14.0649 10.2791 13.6947C9.91211 13.3245 9.72859 12.875 9.72859 12.3462C9.72859 12.2597 9.73541 12.1702 9.74903 12.0776C9.76265 11.985 9.78309 11.8997 9.81035 11.8216L4.73867 8.82336C4.55757 9.00531 4.35142 9.14754 4.12021 9.25006C3.889 9.35257 3.64416 9.40382 3.3857 9.40382C2.8619 9.40382 2.41666 9.2188 2.05 8.84876C1.68333 8.47873 1.5 8.02939 1.5 7.50077C1.5 6.97215 1.68333 6.52256 2.05 6.152C2.41666 5.78144 2.8619 5.59616 3.3857 5.59616C3.64416 5.59616 3.889 5.64741 4.12021 5.74992C4.35142 5.85244 4.55757 5.99468 4.73867 6.17663L9.81035 3.17839C9.78309 3.10029 9.76265 3.01494 9.74903 2.92234C9.73541 2.82976 9.72859 2.74025 9.72859 2.65383C9.72859 2.12499 9.91185 1.67547 10.2784 1.30528C10.6449 0.935095 11.0899 0.75 11.6135 0.75C12.1371 0.75 12.5824 0.93502 12.9495 1.30506C13.3165 1.6751 13.5 2.12443 13.5 2.65305C13.5 3.18168 13.3167 3.63127 12.95 4.00183C12.5833 4.37238 12.1381 4.55766 11.6143 4.55766C11.3558 4.55766 11.111 4.50641 10.8798 4.4039C10.6486 4.30138 10.4424 4.15915 10.2613 3.9772L5.18965 6.97543C5.21691 7.05353 5.23735 7.13873 5.25097 7.23101C5.26459 7.32329 5.2714 7.41248 5.2714 7.49861C5.2714 7.58474 5.26459 7.67441 5.25097 7.7676C5.23735 7.8608 5.21691 7.94645 5.18965 8.02455L10.2613 11.0228C10.4424 10.8408 10.6486 10.6986 10.8798 10.5961C11.111 10.4936 11.3558 10.4423 11.6143 10.4423C12.1381 10.4423 12.5833 10.6273 12.95 10.9974C13.3167 11.3674 13.5 11.8167 13.5 12.3454C13.5 12.874 13.3167 13.3236 12.9502 13.6941C12.5837 14.0647 12.1387 14.25 11.6151 14.25ZM11.6143 3.51922C11.8525 3.51922 12.055 3.43512 12.2216 3.26692C12.3882 3.09871 12.4715 2.89435 12.4715 2.65381C12.4715 2.41328 12.3882 2.20891 12.2216 2.04071C12.055 1.87252 11.8525 1.78843 11.6143 1.78843C11.3761 1.78843 11.1736 1.87253 11.007 2.04072C10.8404 2.20893 10.7571 2.4133 10.7571 2.65383C10.7571 2.89436 10.8404 3.09873 11.007 3.26694C11.1736 3.43514 11.3761 3.51922 11.6143 3.51922ZM3.3857 8.36538C3.62394 8.36538 3.82637 8.28128 3.99297 8.11308C4.15957 7.94487 4.24286 7.74051 4.24286 7.49997C4.24286 7.25944 4.15957 7.05507 3.99297 6.88687C3.82637 6.71868 3.62394 6.63459 3.3857 6.63459C3.14746 6.63459 2.94504 6.71869 2.77843 6.88688C2.61184 7.05509 2.52854 7.25946 2.52854 7.49999C2.52854 7.74052 2.61184 7.94489 2.77843 8.1131C2.94504 8.2813 3.14746 8.36538 3.3857 8.36538ZM11.6143 13.2115C11.8525 13.2115 12.055 13.1274 12.2216 12.9592C12.3882 12.791 12.4715 12.5867 12.4715 12.3461C12.4715 12.1056 12.3882 11.9012 12.2216 11.733C12.055 11.5648 11.8525 11.4807 11.6143 11.4807C11.3761 11.4807 11.1736 11.5648 11.007 11.733C10.8404 11.9013 10.7571 12.1056 10.7571 12.3462C10.7571 12.5867 10.8404 12.7911 11.007 12.9593C11.1736 13.1275 11.3761 13.2115 11.6143 13.2115Z" fill="#333333"/>
</g>
</svg>
