<svg width="40" height="40" viewBox="0 0 40 40" fill="none" xmlns="http://www.w3.org/2000/svg">
<mask id="mask0_492_453" style="mask-type:alpha" maskUnits="userSpaceOnUse" x="0" y="0" width="40" height="40">
<rect width="40" height="40" fill="#D9D9D9"/>
</mask>
<g mask="url(#mask0_492_453)">
<path d="M14.041 36C13.3004 36 12.6728 35.7326 12.1582 35.1978C11.6436 34.6631 11.3863 34.0136 11.3863 33.2495C11.3863 32.4855 11.6455 31.838 12.1638 31.3071C12.682 30.7762 13.3115 30.5108 14.052 30.5108C14.7926 30.5108 15.422 30.7782 15.9402 31.313C16.4584 31.8478 16.7175 32.4972 16.7175 33.2613C16.7175 34.0254 16.4573 34.6728 15.937 35.2037C15.4166 35.7346 14.7846 36 14.041 36ZM29.681 36C28.9403 36 28.3127 35.7326 27.7981 35.1978C27.2836 34.6631 27.0263 34.0136 27.0263 33.2495C27.0263 32.4855 27.2854 31.838 27.8037 31.3071C28.322 30.7762 28.9514 30.5108 29.692 30.5108C30.4325 30.5108 31.0619 30.7782 31.5802 31.313C32.0984 31.8478 32.3575 32.4972 32.3575 33.2613C32.3575 34.0254 32.0973 34.6728 31.5769 35.2037C31.0565 35.7346 30.4245 36 29.681 36ZM11.86 9.38287L16.2231 18.7457H27.3769C27.47 18.7457 27.5545 18.7218 27.6303 18.674C27.7062 18.6261 27.7666 18.5597 27.8114 18.4746L32.4403 9.82935C32.5023 9.71242 32.5075 9.60878 32.4558 9.51843C32.4041 9.42805 32.3162 9.38287 32.192 9.38287H11.86ZM10.8525 7.29948H33.242C33.9016 7.29948 34.4004 7.59091 34.7384 8.17379C35.0765 8.75667 35.0869 9.34893 34.7697 9.95057L29.7401 19.3141C29.4728 19.7791 29.1264 20.1479 28.7009 20.4204C28.2754 20.6928 27.8138 20.8291 27.316 20.8291H15.437L13.3289 24.8195C13.253 24.9471 13.2521 25.0853 13.3263 25.2341C13.4004 25.383 13.5151 25.4574 13.6703 25.4574H31.3438C31.6315 25.4574 31.8724 25.5576 32.0664 25.7579C32.2605 25.9583 32.3575 26.207 32.3575 26.5041C32.3575 26.8012 32.2605 27.0483 32.0664 27.2453C31.8724 27.4423 31.6315 27.5408 31.3438 27.5408H13.8502C12.8145 27.5408 12.0561 27.1416 11.5751 26.3434C11.0941 25.545 11.0905 24.697 11.5642 23.7991L14.0633 19.1411L8.03907 6.08339H6.01369C5.72598 6.08339 5.4851 5.98321 5.29106 5.78283C5.09702 5.58249 5 5.33377 5 5.03666C5 4.73956 5.09702 4.4925 5.29106 4.2955C5.4851 4.0985 5.72598 4 6.01369 4H8.54071C8.79475 4 9.02233 4.06422 9.22345 4.19265C9.42456 4.32108 9.57798 4.50171 9.6837 4.73453L10.8525 7.29948Z" fill="#A88BF7"/>
</g>
</svg>
