<svg width="15" height="14" viewBox="0 0 15 14" fill="none" xmlns="http://www.w3.org/2000/svg">
<path d="M1.77472 13.9793C1.51928 14.038 1.29938 13.9719 1.11499 13.781C0.930622 13.5902 0.866763 13.3626 0.923418 13.0982L1.5955 9.75934L5.0007 13.2837L1.77472 13.9793ZM5.0007 13.2837L1.5955 9.75934L10.6092 0.430153C10.8863 0.143384 11.2293 0 11.6382 0C12.0471 0 12.3901 0.143384 12.6672 0.430153L14.0144 1.82456C14.2915 2.11133 14.43 2.46632 14.43 2.88955C14.43 3.31277 14.2915 3.66777 14.0144 3.95454L5.0007 13.2837ZM11.4682 1.30645L3.25329 9.8009L4.96055 11.5679L13.1677 3.06546C13.2141 3.01748 13.2373 2.95751 13.2373 2.88555C13.2373 2.81358 13.2141 2.75361 13.1677 2.70563L11.8159 1.30645C11.7695 1.25847 11.7116 1.23448 11.642 1.23448C11.5725 1.23448 11.5146 1.25847 11.4682 1.30645Z" fill="black"/>
</svg>
