<svg width="24" height="24" viewBox="0 0 24 24" fill="none" xmlns="http://www.w3.org/2000/svg">
<mask id="mask0_288_389" style="mask-type:alpha" maskUnits="userSpaceOnUse" x="0" y="0" width="24" height="24">
<rect width="24" height="24" fill="#D9D9D9"/>
</mask>
<g mask="url(#mask0_288_389)">
<path d="M2.951 21C2.77212 21 2.61147 20.9551 2.46905 20.8652C2.32664 20.7753 2.21587 20.6569 2.13675 20.5098C2.05446 20.3638 2.00919 20.2057 2.00096 20.0353C1.99273 19.865 2.03745 19.6963 2.13512 19.5292L11.1696 3.49048C11.2672 3.32342 11.3895 3.19991 11.5363 3.11996C11.6831 3.03999 11.8376 3 12 3C12.1624 3 12.3169 3.03999 12.4637 3.11996C12.6105 3.19991 12.7328 3.32342 12.8304 3.49048L21.8649 19.5292C21.9626 19.6963 22.0073 19.865 21.999 20.0353C21.9908 20.2057 21.9455 20.3638 21.8632 20.5098C21.7841 20.6569 21.6734 20.7753 21.5309 20.8652C21.3885 20.9551 21.2279 21 21.049 21H2.951ZM4.03224 19.3731H19.9678L12 5.27342L4.03224 19.3731ZM12 18.0799C12.2415 18.0799 12.444 17.996 12.6073 17.8281C12.7707 17.6602 12.8524 17.4522 12.8524 17.2039C12.8524 16.9557 12.7707 16.7477 12.6073 16.5798C12.444 16.4119 12.2415 16.3279 12 16.3279C11.7585 16.3279 11.556 16.4119 11.3927 16.5798C11.2293 16.7477 11.1476 16.9557 11.1476 17.2039C11.1476 17.4522 11.2293 17.6602 11.3927 17.8281C11.556 17.996 11.7585 18.0799 12 18.0799ZM12.0003 15.2434C12.2247 15.2434 12.4127 15.1654 12.5642 15.0095C12.7157 14.8536 12.7915 14.6604 12.7915 14.4299V10.6338C12.7915 10.4033 12.7156 10.2101 12.5638 10.0543C12.4121 9.89834 12.224 9.82039 11.9997 9.82039C11.7753 9.82039 11.5873 9.89834 11.4358 10.0543C11.2843 10.2101 11.2085 10.4033 11.2085 10.6338V14.4299C11.2085 14.6604 11.2844 14.8536 11.4362 15.0095C11.5879 15.1654 11.776 15.2434 12.0003 15.2434Z" fill="black"/>
</g>
</svg>
