<svg width="20" height="20" viewBox="0 0 20 20" fill="none" xmlns="http://www.w3.org/2000/svg">
<mask id="mask0_231_931" style="mask-type:alpha" maskUnits="userSpaceOnUse" x="0" y="0" width="20" height="20">
<rect width="20" height="20" fill="#D9D9D9"/>
</mask>
<g mask="url(#mask0_231_931)">
<path d="M15.4868 19C14.7886 19 14.1949 18.7532 13.7055 18.2596C13.2161 17.766 12.9715 17.1667 12.9715 16.4615C12.9715 16.3463 12.9805 16.227 12.9987 16.1035C13.0169 15.9801 13.0441 15.8663 13.0805 15.7621L6.31823 11.7645C6.07677 12.0071 5.80189 12.1967 5.49361 12.3334C5.18533 12.4701 4.85888 12.5384 4.51427 12.5384C3.81586 12.5384 3.22221 12.2917 2.73333 11.7984C2.24444 11.305 2 10.7059 2 10.001C2 9.2962 2.24444 8.69674 2.73333 8.20266C3.22221 7.70859 3.81586 7.46155 4.51427 7.46155C4.85888 7.46155 5.18533 7.52989 5.49361 7.66656C5.80189 7.80326 6.07677 7.9929 6.31823 8.2355L13.0805 4.23786C13.0441 4.13372 13.0169 4.01992 12.9987 3.89646C12.9805 3.77301 12.9715 3.65367 12.9715 3.53844C12.9715 2.83332 13.2158 2.23396 13.7045 1.74038C14.1932 1.24679 14.7866 1 15.4847 1C16.1828 1 16.7766 1.24669 17.2659 1.74008C17.7553 2.23346 18 2.83257 18 3.5374C18 4.24224 17.7556 4.84169 17.2667 5.33577C16.7778 5.82984 16.1841 6.07688 15.4857 6.07688C15.1411 6.07688 14.8147 6.00855 14.5064 5.87187C14.1981 5.73518 13.9232 5.54553 13.6818 5.30293L6.91953 9.30057C6.95588 9.40471 6.98313 9.5183 7.00129 9.64135C7.01946 9.76438 7.02854 9.88331 7.02854 9.99814C7.02854 10.113 7.01946 10.2325 7.00129 10.3568C6.98313 10.4811 6.95588 10.5953 6.91953 10.6994L13.6818 14.697C13.9232 14.4544 14.1981 14.2648 14.5064 14.1281C14.8147 13.9914 15.1411 13.9231 15.4857 13.9231C16.1841 13.9231 16.7778 14.1698 17.2667 14.6632C17.7556 15.1566 18 15.7557 18 16.4605C18 17.1653 17.7557 17.7648 17.267 18.2589C16.7783 18.7529 16.1849 19 15.4868 19ZM15.4857 4.69229C15.8034 4.69229 16.0733 4.58016 16.2954 4.3559C16.5175 4.13162 16.6286 3.85913 16.6286 3.53842C16.6286 3.21771 16.5175 2.94522 16.2954 2.72094C16.0733 2.4967 15.8034 2.38457 15.4857 2.38457C15.1681 2.38457 14.8982 2.4967 14.676 2.72096C14.4539 2.94524 14.3428 3.21773 14.3428 3.53844C14.3428 3.85915 14.4539 4.13164 14.676 4.35592C14.8982 4.58018 15.1681 4.69229 15.4857 4.69229ZM4.51427 11.1538C4.83192 11.1538 5.10182 11.0417 5.32396 10.8174C5.54609 10.5932 5.65715 10.3207 5.65715 9.99997C5.65715 9.67926 5.54609 9.40677 5.32396 9.18249C5.10182 8.95824 4.83192 8.84612 4.51427 8.84612C4.19662 8.84612 3.92672 8.95825 3.70458 9.18251C3.48245 9.40679 3.37139 9.67928 3.37139 9.99999C3.37139 10.3207 3.48245 10.5932 3.70458 10.8175C3.92672 11.0417 4.19662 11.1538 4.51427 11.1538ZM15.4857 17.6154C15.8034 17.6154 16.0733 17.5033 16.2954 17.279C16.5175 17.0547 16.6286 16.7822 16.6286 16.4615C16.6286 16.1408 16.5175 15.8683 16.2954 15.644C16.0733 15.4198 15.8034 15.3077 15.4857 15.3077C15.1681 15.3077 14.8982 15.4198 14.676 15.6441C14.4539 15.8683 14.3428 16.1408 14.3428 16.4615C14.3428 16.7822 14.4539 17.0547 14.676 17.279C14.8982 17.5033 15.1681 17.6154 15.4857 17.6154Z" fill="white"/>
</g>
</svg>
