<?xml version="1.0" encoding="utf-8"?>
<!-- Generator: Adobe Illustrator 28.0.0, SVG Export Plug-In . SVG Version: 6.00 Build 0)  -->
<svg version="1.1" id="레이어_1" xmlns="http://www.w3.org/2000/svg" xmlns:xlink="http://www.w3.org/1999/xlink" x="0px"
	 y="0px" viewBox="0 0 100 62" style="enable-background:new 0 0 100 62;" xml:space="preserve">
<style type="text/css">
	.st0{fill:#FFFFFF;}
</style>
<path class="st0" d="M100,31.1c0,1.4-0.5,2.6-1.5,3.5c-0.9,0.9-2.1,1.4-3.5,1.4H18.4l15.7,15.7c1.9,1.9,1.9,4.9,0,6.8
	C33.2,59.5,32,60,30.7,60c-1.2,0-2.5-0.5-3.4-1.4L3.4,34.7c-1-1-1.4-2.3-1.4-3.5c0,0,0-0.1,0-0.1c0-1.2,0.5-2.5,1.4-3.4L27.3,3.7
	c1.9-1.9,5-1.9,6.8,0c1,0.9,1.4,2.2,1.4,3.4c0,1.2-0.5,2.5-1.4,3.4L18.5,26.2h76.5C97.8,26.2,100,28.4,100,31.1z"/>
</svg>
