<svg width="20" height="20" viewBox="0 0 20 20" fill="none" xmlns="http://www.w3.org/2000/svg">
<mask id="mask0_231_927" style="mask-type:alpha" maskUnits="userSpaceOnUse" x="0" y="0" width="20" height="20">
<rect width="20" height="20" fill="#D9D9D9"/>
</mask>
<g mask="url(#mask0_231_927)">
<path d="M10.4914 18C10.2998 18 10.1074 17.9652 9.91412 17.8955C9.72083 17.8258 9.55077 17.7166 9.40394 17.568L8.11865 16.3852C6.5322 14.9208 5.11582 13.4822 3.86949 12.0695C2.62316 10.6568 2 9.14329 2 7.52909C2 6.24353 2.42815 5.16729 3.28447 4.30038C4.14078 3.43346 5.20384 3 6.47367 3C7.19519 3 7.90783 3.16839 8.61159 3.50518C9.31533 3.84196 9.9448 4.38894 10.5 5.14612C11.0552 4.38894 11.6847 3.84196 12.3884 3.50518C13.0922 3.16839 13.8048 3 14.5263 3C15.7962 3 16.8592 3.43346 17.7155 4.30038C18.5718 5.16729 19 6.24353 19 7.52909C19 9.16071 18.3662 10.691 17.0987 12.12C15.8311 13.549 14.4179 14.9754 12.859 16.3991L11.5874 17.568C11.4406 17.7166 11.2691 17.8258 11.073 17.8955C10.8768 17.9652 10.683 18 10.4914 18ZM9.85648 6.52224C9.37241 5.77551 8.86281 5.22825 8.32768 4.88044C7.79256 4.53262 7.17455 4.35871 6.47367 4.35871C5.57893 4.35871 4.83332 4.66065 4.23683 5.26453C3.64033 5.86841 3.34209 6.62326 3.34209 7.52909C3.34209 8.25607 3.57351 9.01614 4.03636 9.80931C4.49921 10.6025 5.08021 11.391 5.77936 12.1749C6.47852 12.9587 7.23589 13.7246 8.05148 14.4725C8.86706 15.2204 9.62301 15.9155 10.3193 16.5577C10.3709 16.6041 10.4312 16.6274 10.5 16.6274C10.5688 16.6274 10.6291 16.6041 10.6807 16.5577C11.377 15.9155 12.1329 15.2204 12.9485 14.4725C13.7641 13.7246 14.5215 12.9587 15.2206 12.1749C15.9198 11.391 16.5008 10.6025 16.9636 9.80931C17.4265 9.01614 17.6579 8.25607 17.6579 7.52909C17.6579 6.62326 17.3597 5.86841 16.7632 5.26453C16.1667 4.66065 15.4211 4.35871 14.5263 4.35871C13.8254 4.35871 13.2074 4.53262 12.6723 4.88044C12.1372 5.22825 11.6276 5.77551 11.1435 6.52224C11.0678 6.63837 10.9726 6.72547 10.8579 6.78355C10.7432 6.84161 10.6239 6.87064 10.5 6.87064C10.3761 6.87064 10.2568 6.84161 10.1421 6.78355C10.0274 6.72547 9.93219 6.63837 9.85648 6.52224Z" fill="white"/>
</g>
</svg>
